<?xml version="1.0" standalone="no"?>
<!DOCTYPE svg PUBLIC "-//W3C//DTD SVG 20010904//EN"
 "http://www.w3.org/TR/2001/REC-SVG-20010904/DTD/svg10.dtd">
<svg version="1.0" xmlns="http://www.w3.org/2000/svg"
 width="500.000000pt" height="500.000000pt" viewBox="0 0 500.000000 500.000000"
 preserveAspectRatio="xMidYMid meet">
<metadata>
Created by potrace 1.11, written by Peter Selinger 2001-2013
</metadata>
<g transform="translate(0.000000,500.000000) scale(0.100000,-0.100000)"
fill="#000000" stroke="none">
<path d="M2322 4984 c-149 -26 -295 -79 -450 -163 -48 -26 -132 -71 -187 -101
-95 -51 -141 -75 -370 -195 -186 -97 -389 -202 -573 -295 -101 -50 -225 -119
-275 -153 -261 -175 -421 -431 -453 -727 -4 -36 -8 -445 -8 -910 l-1 -845 23
-80 c80 -278 268 -495 567 -655 44 -23 112 -59 150 -80 39 -21 111 -59 160
-85 50 -26 113 -60 140 -75 28 -15 82 -45 120 -65 65 -35 377 -208 470 -260
320 -179 401 -217 545 -256 103 -27 166 -34 305 -33 142 0 186 6 302 40 150
43 182 59 668 318 216 116 509 268 781 404 170 86 295 160 360 213 61 50 164
160 202 216 91 135 129 232 168 435 3 18 8 258 9 533 2 275 6 642 9 815 6 327
1 388 -40 529 -45 158 -158 331 -292 447 -109 95 -178 139 -437 274 -66 34
-167 88 -225 120 -58 31 -141 77 -185 100 -44 24 -220 121 -390 216 -436 242
-512 276 -684 311 -101 20 -316 24 -409 7z m240 -794 c45 -13 93 -51 116 -94
15 -28 17 -90 22 -648 l5 -617 600 298 c330 164 617 304 638 310 23 8 56 10
87 6 163 -22 225 -234 101 -344 -16 -14 -289 -154 -605 -311 l-576 -285 579
-287 c350 -174 591 -299 610 -317 60 -59 76 -151 39 -224 -23 -46 -29 -53 -78
-87 -29 -20 -47 -25 -100 -25 l-65 0 -615 307 c-338 169 -616 305 -617 304 -2
-1 -3 -276 -3 -610 l-1 -608 -24 -48 c-33 -66 -101 -110 -168 -110 -81 0 -150
43 -186 115 -19 38 -20 63 -21 649 0 335 -1 611 -3 612 -1 2 -279 -135 -617
-303 -533 -265 -622 -307 -666 -309 -54 -3 -111 18 -152 54 -66 58 -78 175
-25 254 27 41 54 56 610 333 320 160 585 293 589 297 3 4 -252 135 -567 291
-316 156 -588 296 -606 311 -70 59 -82 179 -27 259 27 40 73 64 822 440 836
419 817 411 904 387z"/>
<path d="M1868 3460 l-418 -210 418 -206 c229 -114 420 -209 425 -211 4 -2 7
185 7 416 0 232 -3 421 -7 420 -5 0 -196 -94 -425 -209z"/>
</g>
</svg>
